<svg xmlns="http://www.w3.org/2000/svg" xmlns:xlink="http://www.w3.org/1999/xlink" viewBox="0 0 155.68 166.27"><defs><style>.cls-1,.cls-3,.cls-4,.cls-5,.cls-6,.cls-7,.cls-8,.cls-9{fill:none;}.cls-2{clip-path:url(#clip-path);}.Graphic-Style{fill:#53405f;fill-opacity:0.2;stroke:url(#radial-gradient);}.Graphic-Style,.cls-3,.cls-4,.cls-5,.cls-6,.cls-7,.cls-8{stroke-miterlimit:10;}.cls-3,.cls-4{stroke:#ccc;}.cls-4,.cls-5,.cls-6,.cls-7,.cls-8{opacity:0.76;}.cls-5{stroke:#b3b3b3;}.cls-6{stroke:#999;}.cls-7{stroke:gray;}.cls-8{stroke:#666;}.cls-9{stroke-width:10px;stroke:url(#New_Gradient_Swatch_2);}.cls-10{fill:url(#New_Gradient_Swatch_2-2);}.cls-11{fill:url(#New_Gradient_Swatch_2-3);}</style><clipPath id="clip-path"><path class="cls-1" d="M123,31.57,82.74,15.09a13,13,0,0,0-9.8,0L32.65,31.57a13,13,0,0,0-7,7L9,78.13a13,13,0,0,0,0,10l16.6,39.58a13,13,0,0,0,7,7l40.29,16.48a13,13,0,0,0,9.8,0L123,134.7a13,13,0,0,0,7-7l16.6-39.58a13,13,0,0,0,0-10l-16.6-39.58A13,13,0,0,0,123,31.57Z"/></clipPath><radialGradient id="radial-gradient" cx="77.84" cy="83.13" r="80.53" gradientUnits="userSpaceOnUse"><stop offset="0" stop-color="#fff"/><stop offset="1"/></radialGradient><linearGradient id="New_Gradient_Swatch_2" x1="77.84" y1="-860.08" x2="77.84" y2="-1008.55" gradientTransform="matrix(1, 0, 0, -1, 0, -851.17)" gradientUnits="userSpaceOnUse"><stop offset="0" stop-color="#ff9a03"/><stop offset="0" stop-color="#8f314f"/><stop offset="1" stop-color="#dd704f"/></linearGradient><linearGradient id="New_Gradient_Swatch_2-2" x1="77.84" y1="-959.19" x2="77.84" y2="-909.43" xlink:href="#New_Gradient_Swatch_2"/><linearGradient id="New_Gradient_Swatch_2-3" x1="84.04" y1="-964.59" x2="84.04" y2="-908.02" xlink:href="#New_Gradient_Swatch_2"/></defs><title>rosen-logo</title><g id="Layer_2" data-name="Layer 2"><g id="Rosen"><g class="cls-2"><polygon class="Graphic-Style" points="0.54 114.37 12.14 31.8 89.44 0.57 155.14 51.9 143.54 134.47 66.23 165.7 0.54 114.37"/><polygon class="cls-3" points="56.76 95.3 56.76 70.97 77.84 58.8 98.92 70.97 98.92 95.3 77.84 107.47 56.76 95.3"/><polygon class="cls-4" points="53.47 92.98 57.13 66.95 81.5 57.11 102.21 73.29 98.55 99.32 74.18 109.16 53.47 92.98"/><polygon class="cls-5" points="50.3 90 58.12 62.72 85.66 55.85 105.38 76.27 97.56 103.55 70.02 110.42 50.3 90"/><polygon class="cls-5" points="47.35 86.34 59.82 58.33 90.31 55.13 108.33 79.93 95.86 107.94 65.37 111.14 47.35 86.34"/><polygon class="cls-5" points="44.75 81.98 62.3 53.9 95.38 55.06 110.93 84.29 93.38 112.37 60.29 111.21 44.75 81.98"/><polygon class="cls-5" points="42.62 76.93 65.61 49.53 100.82 55.74 113.05 89.34 90.07 116.74 54.85 110.53 42.62 76.93"/><polygon class="cls-5" points="41.11 71.2 69.81 45.36 106.54 57.29 114.57 95.07 85.87 120.91 49.14 108.98 41.11 71.2"/><polygon class="cls-6" points="40.35 64.85 74.93 41.53 112.42 59.81 115.33 101.42 80.75 124.74 43.26 106.46 40.35 64.85"/><polygon class="cls-6" points="40.49 57.95 80.98 38.2 118.33 63.39 115.18 108.32 74.7 128.07 37.35 102.88 40.49 57.95"/><polygon class="cls-6" points="41.69 50.58 87.95 35.55 124.11 68.1 113.99 115.69 67.72 130.72 31.57 98.17 41.69 50.58"/><polygon class="cls-6" points="44.07 42.89 95.81 33.76 129.58 74.01 111.61 123.38 59.87 132.51 26.1 92.26 44.07 42.89"/><polygon class="cls-7" points="47.77 35.01 104.48 33.03 134.55 81.16 107.91 131.26 51.2 133.24 21.13 85.11 47.77 35.01"/><polygon class="cls-7" points="52.91 27.15 113.86 33.56 138.79 89.54 102.77 139.12 41.82 132.71 16.89 76.73 52.91 27.15"/><polygon class="cls-7" points="59.6 19.51 123.81 35.52 142.06 99.15 96.08 146.76 31.86 130.75 13.62 67.12 59.6 19.51"/><polygon class="cls-8" points="67.89 12.35 134.17 39.13 144.11 109.91 87.79 153.92 21.51 127.14 11.56 56.36 67.89 12.35"/><polygon class="cls-8" points="77.84 5.94 144.69 44.54 144.69 121.73 77.84 160.33 10.98 121.73 10.98 44.54 77.84 5.94"/></g><path class="cls-9" d="M123,31.57,82.74,15.09a13,13,0,0,0-9.8,0L32.65,31.57a13,13,0,0,0-7,7L9,78.13a13,13,0,0,0,0,10l16.6,39.58a13,13,0,0,0,7,7l40.29,16.48a13,13,0,0,0,9.8,0L123,134.7a13,13,0,0,0,7-7l16.6-39.58a13,13,0,0,0,0-10l-16.6-39.58A13,13,0,0,0,123,31.57Z"/><path class="cls-10" d="M110.21,68.72l-9.82-10.26H45.46l24.26,25L45.46,107.81H59.3L84.75,83.43l-15-14.71Z"/><path class="cls-11" d="M92.92,73.21H78.8L89.69,83.46,64.08,107.81H78.8L104,83.46Z"/></g></g></svg>